<svg xmlns="http://www.w3.org/2000/svg" xmlns:xlink="http://www.w3.org/1999/xlink" width="16" height="16" preserveAspectRatio="xMidYMid meet" viewBox="0 0 16 16" style="-ms-transform: rotate(360deg); -webkit-transform: rotate(360deg); transform: rotate(360deg);"><g fill="#626262"><path d="M9 1H4a2 2 0 0 0-2 2v10a2 2 0 0 0 2 2h5v-1H4a1 1 0 0 1-1-1V3a1 1 0 0 1 1-1h5v2.5A1.5 1.5 0 0 0 10.5 6H13v2h1V6L9 1z"/><path fill-rule="evenodd" d="M11 11.5a.5.5 0 0 1 .5-.5h4a.5.5 0 0 1 0 1h-4a.5.5 0 0 1-.5-.5z"/></g><rect x="0" y="0" width="16" height="16" fill="rgba(0, 0, 0, 0)" /></svg>